<?xml version="1.0" encoding="UTF-8" standalone="no"?>
<!-- Created with Inkscape (http://www.inkscape.org/) -->

<svg
   width="256"
   height="256"
   viewBox="0 0 67.733332 67.733333"
   version="1.1"
   id="svg1"
   inkscape:version="1.3 (0e150ed6c4, 2023-07-21)"
   sodipodi:docname="project-daisy-icon.svg"
   xml:space="preserve"
   inkscape:export-filename="../../../tmp/project-daisy-icon.png"
   inkscape:export-xdpi="96"
   inkscape:export-ydpi="96"
   xmlns:inkscape="http://www.inkscape.org/namespaces/inkscape"
   xmlns:sodipodi="http://sodipodi.sourceforge.net/DTD/sodipodi-0.dtd"
   xmlns="http://www.w3.org/2000/svg"
   xmlns:svg="http://www.w3.org/2000/svg"
   xmlns:rdf="http://www.w3.org/1999/02/22-rdf-syntax-ns#"
   xmlns:cc="http://creativecommons.org/ns#"
   xmlns:dc="http://purl.org/dc/elements/1.1/"><title
     id="title1">Project Daisy Icon</title><sodipodi:namedview
     id="namedview1"
     pagecolor="#505050"
     bordercolor="#ffffff"
     borderopacity="1"
     inkscape:showpageshadow="0"
     inkscape:pageopacity="0"
     inkscape:pagecheckerboard="1"
     inkscape:deskcolor="#505050"
     inkscape:document-units="mm"
     inkscape:zoom="2.8044052"
     inkscape:cx="68.998588"
     inkscape:cy="119.63321"
     inkscape:window-width="1920"
     inkscape:window-height="1001"
     inkscape:window-x="-4"
     inkscape:window-y="-4"
     inkscape:window-maximized="1"
     inkscape:current-layer="layer1" /><defs
     id="defs1" /><g
     inkscape:label="Layer 1"
     inkscape:groupmode="layer"
     id="layer1"><path
       style="fill:#000000;fill-opacity:0.5;stroke:#000000;stroke-width:0.529167;stroke-dasharray:none;stroke-opacity:0.5"
       d="m 47.191664,59.076451 c 5.24e-4,4.91e-4 0.191822,0.258775 -1.422157,-0.189338 -2.649199,-0.735541 -3.822069,-1.984383 -3.822069,-1.984383 0,0 -4.838465,-3.329231 -7.012423,-12.480442 -2.173958,-9.151209 4.007505,-1.858911 4.007505,-1.858911 0,0 6.274145,3.211335 8.494396,7.442979 2.22025,4.231642 1.37395,6.345563 1.37395,6.345563 0,0 -0.245369,1.872379 -1.619202,2.724532 z"
       id="path2-2-61-9-2"
       sodipodi:nodetypes="cscscscc" /><circle
       id="path1-9"
       style="fill:#000000;fill-opacity:0.5;stroke:#000000;stroke-width:0.264583;stroke-opacity:0.5"
       cx="9.56497"
       cy="24.020369"
       r="0.00059370446" /><path
       style="fill:#000000;fill-opacity:0.5;stroke:#000000;stroke-width:0.529167;stroke-dasharray:none;stroke-opacity:0.5"
       d="m 20.988536,12.412448 c -4.99e-4,-5.15e-4 -0.179344,-0.267574 1.411587,0.256515 2.611371,0.860246 3.723748,2.163261 3.723748,2.163261 0,0 4.675276,3.55476 6.413166,12.798704 1.737891,9.243941 -4.091086,1.666929 -4.091086,1.666929 0,0 -6.11493,-3.505026 -8.132173,-7.837122 -2.017243,-4.332094 -1.071725,-6.403538 -1.071725,-6.403538 0,0 0.333816,-1.85865 1.746483,-2.644749 z"
       id="path2-25-6"
       sodipodi:nodetypes="cscscscc" /><path
       style="fill:#000000;fill-opacity:0.5;stroke:#000000;stroke-width:0.529167;stroke-dasharray:none;stroke-opacity:0.5"
       d="m 17.142798,15.889138 c -5.76e-4,-4.29e-4 -0.219652,-0.235613 1.434421,0.02854 2.71501,0.433586 4.020623,1.542913 4.020623,1.542913 0,0 5.181524,2.765199 8.368749,11.614626 3.187225,8.849425 -3.773571,2.296913 -3.773571,2.296913 0,0 -6.594904,-2.486929 -9.276028,-6.442671 -2.681123,-3.955741 -2.077405,-6.151284 -2.077405,-6.151284 0,0 0.03369,-1.888088 1.303211,-2.889037 z"
       id="path2-2-13"
       sodipodi:nodetypes="cscscscc" /><path
       style="fill:#000000;fill-opacity:0.5;stroke:#000000;stroke-width:0.529167;stroke-dasharray:none;stroke-opacity:0.5"
       d="m 9.4706233,23.973194 c -7.11e-4,-1.02e-4 -0.305543,-0.101999 1.2736657,-0.660419 2.592129,-0.916596 4.26914,-0.566074 4.26914,-0.566074 0,0 5.873014,-0.04717 12.901763,6.203226 7.028748,6.250394 -2.217122,3.820996 -2.217122,3.820996 0,0 -6.981576,0.967044 -11.227129,-1.226492 -4.245553,-2.193536 -4.7644537,-4.410657 -4.7644537,-4.410657 0,0 -0.872696,-1.674637 -0.235864,-3.16058 z"
       id="path2-64"
       sodipodi:nodetypes="cscscscc" /><path
       style="fill:#000000;fill-opacity:0.5;stroke:#000000;stroke-width:0.529167;stroke-dasharray:none;stroke-opacity:0.5"
       d="m 43.969419,12.32707 c 1.8e-5,-7.19e-4 0.0654,-0.315408 0.80544,1.187284 1.214697,2.466533 1.063567,4.173106 1.063567,4.173106 0,0 0.73663,5.826826 -4.644976,13.541037 -5.381587,7.714224 -4.054952,-1.752999 -4.054952,-1.752999 0,0 -1.780339,-6.819675 -0.100625,-11.293475 1.679712,-4.473799 3.820543,-5.249511 3.820543,-5.249511 0,0 1.560548,-1.063343 3.111003,-0.605442 z"
       id="path2-9-4-5"
       sodipodi:nodetypes="cscscscc"
       inkscape:transform-center-x="2.4094086"
       inkscape:transform-center-y="0.78918661" /><path
       style="fill:#000000;fill-opacity:0.5;stroke:#000000;stroke-width:0.529167;stroke-dasharray:none;stroke-opacity:0.5"
       d="m 48.64912,12.453298 c 7.8e-5,-7.15e-4 0.09159,-0.308822 0.703165,1.250574 1.003835,2.559607 0.710296,4.247525 0.710296,4.247525 0,0 0.245994,5.86805 -5.762834,13.104398 -6.008809,7.236362 -3.893874,-2.086477 -3.893874,-2.086477 0,0 -1.202876,-6.94483 0.845655,-11.262219 2.048529,-4.317388 4.24681,-4.91106 4.24681,-4.91106 0,0 1.644129,-0.928897 3.150782,-0.342741 z"
       id="path2-9-13"
       sodipodi:nodetypes="cscscscc"
       inkscape:transform-center-x="2.2640905"
       inkscape:transform-center-y="0.53728099" /><path
       style="fill:#000000;fill-opacity:0.5;stroke:#000000;stroke-width:0.529167;stroke-dasharray:none;stroke-opacity:0.5"
       d="m 59.012045,17.91659 c 4.1e-4,-5.91e-4 0.228044,-0.2275 0.02005,1.434565 -0.341411,2.728134 -1.405897,4.070559 -1.405897,4.070559 0,0 -2.588175,5.272178 -11.324612,8.757205 -8.736436,3.485026 -2.423364,-3.693636 -2.423364,-3.693636 0,0 2.262209,-6.675328 6.124904,-9.48885 3.862694,-2.813523 6.077419,-2.284488 6.077419,-2.284488 0,0 1.888146,-0.03026 2.931505,1.204645 z"
       id="path2-2-1-2"
       sodipodi:nodetypes="cscscscc"
       inkscape:transform-center-x="-2.3037023"
       inkscape:transform-center-y="2.7840974" /><path
       style="fill:#000000;fill-opacity:0.5;stroke:#000000;stroke-width:0.529167;stroke-dasharray:none;stroke-opacity:0.5"
       d="m 63.525071,29.64245 c 6.35e-4,-3.38e-4 0.306854,-0.09798 -0.638459,1.284814 -1.551652,2.269724 -3.112344,2.976459 -3.112344,2.976459 0,0 -4.713366,3.504097 -14.076312,2.606326 -9.362947,-0.897748 -0.465147,-4.393094 -0.465147,-4.393094 0,0 5.065419,-4.900929 9.787333,-5.635673 4.721913,-0.734745 6.449271,0.748872 6.449271,0.748872 0,0 1.69282,0.836882 2.055658,2.412296 z"
       id="path2-9-3-0"
       sodipodi:nodetypes="cscscscc"
       inkscape:transform-center-x="1.9911997"
       inkscape:transform-center-y="-2.7402069" /><path
       style="fill:#000000;fill-opacity:0.5;stroke:#000000;stroke-width:0.529167;stroke-dasharray:none;stroke-opacity:0.5"
       d="m 64.100446,40.871838 c 7.2e-4,7e-6 0.316371,0.06058 -1.174828,0.823503 -2.447675,1.252263 -4.15636,1.127238 -4.15636,1.127238 0,0 -5.814883,0.825621 -13.610464,-4.437426 -7.79558,-5.263046 1.690805,-4.081276 1.690805,-4.081276 0,0 6.791662,-1.884387 11.290617,-0.273262 4.498956,1.611122 5.307303,3.739845 5.307303,3.739845 0,0 1.087079,1.544108 0.65293,3.101382 z"
       id="path2-2-1-9-7"
       sodipodi:nodetypes="cscscscc"
       inkscape:transform-center-x="1.3405076"
       inkscape:transform-center-y="3.9170953" /><path
       style="fill:#000000;fill-opacity:0.5;stroke:#000000;stroke-width:0.529167;stroke-dasharray:none;stroke-opacity:0.5"
       d="m 8.1848523,31.066683 c -7.2e-4,-7e-6 -0.316371,-0.06058 1.174828,-0.823503 2.4476747,-1.252263 4.1563607,-1.127238 4.1563607,-1.127238 0,0 5.814882,-0.825621 13.610463,4.437426 7.79558,5.263046 -1.690805,4.081276 -1.690805,4.081276 0,0 -6.791662,1.884387 -11.290617,0.273262 -4.4989557,-1.611122 -5.3073027,-3.739845 -5.3073027,-3.739845 0,0 -1.087079,-1.544108 -0.65293,-3.101382 z"
       id="path2-2-1-9-5-1"
       sodipodi:nodetypes="cscscscc"
       inkscape:transform-center-x="-1.3405073"
       inkscape:transform-center-y="-3.9170951" /><path
       style="fill:#000000;fill-opacity:0.5;stroke:#000000;stroke-width:0.529167;stroke-dasharray:none;stroke-opacity:0.5"
       d="m 8.7602273,42.296071 c -6.35e-4,3.38e-4 -0.306854,0.09798 0.638459,-1.284814 1.5516517,-2.269724 3.1123437,-2.976459 3.1123437,-2.976459 0,0 4.713366,-3.504097 14.076312,-2.606326 9.362947,0.897748 0.465147,4.393094 0.465147,4.393094 0,0 -5.065419,4.900929 -9.787333,5.635673 -4.721912,0.734745 -6.449271,-0.748872 -6.449271,-0.748872 0,0 -1.6928197,-0.836882 -2.0556577,-2.412296 z"
       id="path2-9-3-6-8"
       sodipodi:nodetypes="cscscscc"
       inkscape:transform-center-x="-1.9911994"
       inkscape:transform-center-y="2.7402071" /><path
       style="fill:#000000;fill-opacity:0.5;stroke:#000000;stroke-width:0.529167;stroke-dasharray:none;stroke-opacity:0.5"
       d="m 29.150415,11.501604 c -3.64e-4,-6.19e-4 -0.111041,-0.302374 1.311001,0.582797 2.334154,1.45293 3.10714,2.981892 3.10714,2.981892 0,0 3.702923,4.558824 3.207335,13.951649 -0.495587,9.392822 -4.369117,0.653037 -4.369117,0.653037 0,0 -5.113561,-4.850677 -6.050043,-9.536755 -0.936481,-4.686076 0.471725,-6.475444 0.471725,-6.475444 0,0 0.763546,-1.727139 2.321959,-2.157176 z"
       id="path2-97-6"
       sodipodi:nodetypes="cscscscc" /><path
       style="fill:#000000;fill-opacity:0.5;stroke:#000000;stroke-width:0.529167;stroke-dasharray:none;stroke-opacity:0.5"
       d="m 40.344817,10.445391 c -2.4e-5,-7.18e-4 0.04696,-0.318677 0.873103,1.138451 1.356035,2.391745 1.304371,4.104218 1.304371,4.104218 0,0 1.074128,5.774146 -3.849912,13.788171 -4.924037,8.014024 -4.150005,-1.5143 -4.150005,-1.5143 0,0 -2.173789,-6.704642 -0.757001,-11.268525 1.416787,-4.563883 3.508901,-5.462739 3.508901,-5.462739 0,0 1.496091,-1.152269 3.070543,-0.785276 z"
       id="path2-2-6-4"
       sodipodi:nodetypes="cscscscc" /><path
       style="fill:#000000;fill-opacity:0.5;stroke:#000000;stroke-width:0.529167;stroke-dasharray:none;stroke-opacity:0.5"
       d="m 60.423882,48.479546 c 7.11e-4,1.02e-4 0.305543,0.101999 -1.273666,0.660419 -2.592128,0.916596 -4.269139,0.566074 -4.269139,0.566074 0,0 -5.873014,0.04717 -12.901763,-6.203226 -7.028748,-6.250394 2.217122,-3.820996 2.217122,-3.820996 0,0 6.981576,-0.967044 11.227129,1.226492 4.245552,2.193536 4.764453,4.410657 4.764453,4.410657 0,0 0.872697,1.674637 0.235864,3.16058 z"
       id="path2-6-1"
       sodipodi:nodetypes="cscscscc" /><path
       style="fill:#000000;fill-opacity:0.5;stroke:#000000;stroke-width:0.529167;stroke-dasharray:none;stroke-opacity:0.5"
       d="m 52.751708,57.318367 c 5.76e-4,4.29e-4 0.219652,0.235613 -1.434421,-0.02854 -2.71501,-0.433586 -4.020623,-1.542913 -4.020623,-1.542913 0,0 -5.181524,-2.765199 -8.368749,-11.614626 -3.187225,-8.849425 3.773571,-2.296913 3.773571,-2.296913 0,0 6.594904,2.486929 9.276028,6.442671 2.681123,3.955741 2.077405,6.151284 2.077405,6.151284 0,0 -0.03369,1.888088 -1.303211,2.889037 z"
       id="path2-2-61-0"
       sodipodi:nodetypes="cscscscc" /><path
       style="fill:#000000;fill-opacity:0.5;stroke:#000000;stroke-width:0.529167;stroke-dasharray:none;stroke-opacity:0.5"
       d="m 10.88246,54.53615 c -4.1e-4,5.91e-4 -0.228044,0.2275 -0.02005,-1.434565 0.341411,-2.728134 1.405897,-4.070559 1.405897,-4.070559 0,0 2.588176,-5.272178 11.324613,-8.757205 8.736436,-3.485026 2.423364,3.693636 2.423364,3.693636 0,0 -2.262209,6.675328 -6.124904,9.48885 -3.862694,2.813523 -6.077419,2.284488 -6.077419,2.284488 0,0 -1.888147,0.03026 -2.931506,-1.204645 z"
       id="path2-2-1-3-3"
       sodipodi:nodetypes="cscscscc"
       inkscape:transform-center-x="2.3037019"
       inkscape:transform-center-y="-2.7840975" /><path
       style="fill:#000000;fill-opacity:0.5;stroke:#000000;stroke-width:0.529167;stroke-dasharray:none;stroke-opacity:0.5"
       d="m 20.635244,60.197736 c -1.49e-4,7.03e-4 -0.121705,0.298241 -0.575942,-1.314027 -0.74558,-2.646391 -0.286427,-4.29697 -0.286427,-4.29697 0,0 0.335982,-5.863586 7.031498,-12.469706 6.695498,-6.606135 3.668255,2.461615 3.668255,2.461615 0,0 0.509633,7.029783 -1.956138,11.123229 -2.465768,4.093446 -4.712012,4.466637 -4.712012,4.466637 0,0 -1.727991,0.761615 -3.169234,0.02922 z"
       id="path2-9-1-0"
       sodipodi:nodetypes="cscscscc"
       inkscape:transform-center-x="-2.4600702"
       inkscape:transform-center-y="-0.22259837" /><path
       style="fill:#000000;fill-opacity:0.5;stroke:#000000;stroke-width:0.529167;stroke-dasharray:none;stroke-opacity:0.5"
       d="m 40.744091,60.951136 c 3.64e-4,6.19e-4 0.111041,0.302374 -1.311001,-0.582797 -2.334154,-1.45293 -3.10714,-2.981892 -3.10714,-2.981892 0,0 -3.702923,-4.558824 -3.207335,-13.951649 0.495587,-9.392822 4.369117,-0.653037 4.369117,-0.653037 0,0 5.113561,4.850677 6.050043,9.536755 0.936481,4.686076 -0.471725,6.475444 -0.471725,6.475444 0,0 -0.763546,1.727139 -2.321959,2.157176 z"
       id="path2-97-5-6"
       sodipodi:nodetypes="cscscscc" /><path
       style="fill:#000000;fill-opacity:0.5;stroke:#000000;stroke-width:0.529167;stroke-dasharray:none;stroke-opacity:0.5"
       d="m 29.549689,62.007349 c 2.4e-5,7.18e-4 -0.04696,0.318677 -0.873103,-1.138451 -1.356035,-2.391745 -1.304371,-4.104218 -1.304371,-4.104218 0,0 -1.074128,-5.774146 3.849912,-13.788171 4.924037,-8.014024 4.150005,1.5143 4.150005,1.5143 0,0 2.173789,6.704642 0.757001,11.268525 -1.416787,4.563883 -3.508901,5.462739 -3.508901,5.462739 0,0 -1.496091,1.152269 -3.070543,0.785276 z"
       id="path2-2-6-8-4"
       sodipodi:nodetypes="cscscscc" /><ellipse
       style="fill:#000000;fill-opacity:0.5;stroke:#000000;stroke-width:0.631685;stroke-dasharray:none;stroke-opacity:0.5"
       id="path3-3"
       cx="35.445976"
       cy="36.194515"
       rx="11.189785"
       ry="10.405914" /><path
       style="fill:#ff0000;stroke:#800000;stroke-width:0.529167;stroke-dasharray:none"
       d="m 45.233845,56.907056 c 5.24e-4,4.91e-4 0.191822,0.258775 -1.422157,-0.189338 -2.649199,-0.735541 -3.822069,-1.984383 -3.822069,-1.984383 0,0 -4.838465,-3.329231 -7.012423,-12.480442 -2.173958,-9.151209 4.007505,-1.858911 4.007505,-1.858911 0,0 6.274145,3.211335 8.494396,7.442979 2.22025,4.231642 1.37395,6.345563 1.37395,6.345563 0,0 -0.245369,1.872379 -1.619202,2.724532 z"
       id="path2-2-61-9"
       sodipodi:nodetypes="cscscscc" /><circle
       id="path1"
       style="fill:#ff0000;stroke:#ff0000;stroke-width:0.264583"
       cx="7.6071506"
       cy="21.850973"
       r="0.00059370446" /><path
       style="fill:#ff0000;stroke:#800000;stroke-width:0.529167;stroke-dasharray:none"
       d="m 19.030717,10.243053 c -4.99e-4,-5.15e-4 -0.179344,-0.2675741 1.411587,0.256515 2.611371,0.860246 3.723748,2.163261 3.723748,2.163261 0,0 4.675276,3.55476 6.413166,12.798704 1.737891,9.243941 -4.091086,1.666929 -4.091086,1.666929 0,0 -6.11493,-3.505026 -8.132173,-7.837122 -2.017243,-4.332094 -1.071725,-6.403538 -1.071725,-6.403538 0,0 0.333816,-1.85865 1.746483,-2.644749 z"
       id="path2-25"
       sodipodi:nodetypes="cscscscc" /><path
       style="fill:#ff0000;stroke:#800000;stroke-width:0.529167;stroke-dasharray:none"
       d="m 15.184979,13.719743 c -5.76e-4,-4.29e-4 -0.219652,-0.235613 1.434421,0.02854 2.71501,0.433586 4.020623,1.542913 4.020623,1.542913 0,0 5.181524,2.765199 8.368749,11.614626 3.187225,8.849425 -3.773571,2.296913 -3.773571,2.296913 0,0 -6.594904,-2.486929 -9.276028,-6.442671 -2.681123,-3.955741 -2.077405,-6.151284 -2.077405,-6.151284 0,0 0.03369,-1.888088 1.303211,-2.889037 z"
       id="path2-2"
       sodipodi:nodetypes="cscscscc" /><path
       style="fill:#ff0000;stroke:#800000;stroke-width:0.529167;stroke-dasharray:none"
       d="M 7.5128045,21.803799 C 7.5120936,21.803697 7.2072615,21.7018 8.7864703,21.14338 11.378599,20.226784 13.05561,20.577306 13.05561,20.577306 c 0,0 5.873014,-0.04717 12.901763,6.203226 7.028748,6.250394 -2.217122,3.820996 -2.217122,3.820996 0,0 -6.981576,0.967044 -11.227129,-1.226492 C 8.2675695,27.1815 7.7486687,24.964379 7.7486687,24.964379 c 0,0 -0.8726969,-1.674637 -0.2358642,-3.16058 z"
       id="path2"
       sodipodi:nodetypes="cscscscc" /><path
       style="fill:#ff0000;stroke:#800000;stroke-width:0.529167;stroke-dasharray:none"
       d="m 42.0116,10.157675 c 1.8e-5,-7.19e-4 0.0654,-0.3154079 0.80544,1.187284 1.214697,2.466533 1.063567,4.173106 1.063567,4.173106 0,0 0.73663,5.826826 -4.644976,13.541037 -5.381587,7.714224 -4.054952,-1.752999 -4.054952,-1.752999 0,0 -1.780339,-6.819675 -0.100625,-11.293475 1.679712,-4.473799 3.820543,-5.249511 3.820543,-5.249511 0,0 1.560548,-1.0633427 3.111003,-0.605442 z"
       id="path2-9-4"
       sodipodi:nodetypes="cscscscc"
       inkscape:transform-center-x="2.4094086"
       inkscape:transform-center-y="0.78918661" /><path
       style="fill:#ff0000;stroke:#800000;stroke-width:0.529167;stroke-dasharray:none"
       d="m 46.691301,10.283903 c 7.8e-5,-7.15e-4 0.09159,-0.3088216 0.703165,1.250574 1.003835,2.559607 0.710296,4.247525 0.710296,4.247525 0,0 0.245994,5.86805 -5.762834,13.104398 -6.008809,7.236362 -3.893874,-2.086477 -3.893874,-2.086477 0,0 -1.202876,-6.94483 0.845655,-11.262219 2.048529,-4.317388 4.24681,-4.91106 4.24681,-4.91106 0,0 1.644129,-0.9288966 3.150782,-0.342741 z"
       id="path2-9"
       sodipodi:nodetypes="cscscscc"
       inkscape:transform-center-x="2.2640905"
       inkscape:transform-center-y="0.53728099" /><path
       style="fill:#ff0000;stroke:#800000;stroke-width:0.529167;stroke-dasharray:none"
       d="m 57.054226,15.747195 c 4.1e-4,-5.91e-4 0.228044,-0.2275 0.02005,1.434565 -0.341411,2.728134 -1.405897,4.070559 -1.405897,4.070559 0,0 -2.588175,5.272178 -11.324612,8.757205 -8.736436,3.485026 -2.423364,-3.693636 -2.423364,-3.693636 0,0 2.262209,-6.675328 6.124904,-9.48885 3.862694,-2.813523 6.077419,-2.284488 6.077419,-2.284488 0,0 1.888146,-0.03026 2.931505,1.204645 z"
       id="path2-2-1"
       sodipodi:nodetypes="cscscscc"
       inkscape:transform-center-x="-2.3037023"
       inkscape:transform-center-y="2.7840974" /><path
       style="fill:#ff0000;stroke:#800000;stroke-width:0.529167;stroke-dasharray:none"
       d="m 61.567252,27.473055 c 6.35e-4,-3.38e-4 0.306854,-0.09798 -0.638459,1.284814 -1.551652,2.269724 -3.112344,2.976459 -3.112344,2.976459 0,0 -4.713366,3.504097 -14.076312,2.606326 C 34.37719,33.442906 43.27499,29.94756 43.27499,29.94756 c 0,0 5.065419,-4.900929 9.787333,-5.635673 4.721913,-0.734745 6.449271,0.748872 6.449271,0.748872 0,0 1.69282,0.836882 2.055658,2.412296 z"
       id="path2-9-3"
       sodipodi:nodetypes="cscscscc"
       inkscape:transform-center-x="1.9911997"
       inkscape:transform-center-y="-2.7402069" /><path
       style="fill:#ff0000;stroke:#800000;stroke-width:0.529167;stroke-dasharray:none"
       d="m 62.142627,38.702443 c 7.2e-4,7e-6 0.316371,0.06058 -1.174828,0.823503 -2.447675,1.252263 -4.15636,1.127238 -4.15636,1.127238 0,0 -5.814883,0.825621 -13.610464,-4.437426 -7.79558,-5.263046 1.690805,-4.081276 1.690805,-4.081276 0,0 6.791662,-1.884387 11.290617,-0.273262 4.498956,1.611122 5.307303,3.739845 5.307303,3.739845 0,0 1.087079,1.544108 0.65293,3.101382 z"
       id="path2-2-1-9"
       sodipodi:nodetypes="cscscscc"
       inkscape:transform-center-x="1.3405076"
       inkscape:transform-center-y="3.9170953" /><path
       style="fill:#ff0000;stroke:#800000;stroke-width:0.529167;stroke-dasharray:none"
       d="m 6.2270332,28.897288 c -7.2e-4,-7e-6 -0.316371,-0.06058 1.174828,-0.823503 2.4476752,-1.252263 4.1563608,-1.127238 4.1563608,-1.127238 0,0 5.814882,-0.825621 13.610463,4.437426 7.79558,5.263046 -1.690805,4.081276 -1.690805,4.081276 0,0 -6.791662,1.884387 -11.290617,0.273262 -4.4989558,-1.611122 -5.3073028,-3.739845 -5.3073028,-3.739845 0,0 -1.087079,-1.544108 -0.65293,-3.101382 z"
       id="path2-2-1-9-5"
       sodipodi:nodetypes="cscscscc"
       inkscape:transform-center-x="-1.3405073"
       inkscape:transform-center-y="-3.9170951" /><path
       style="fill:#ff0000;stroke:#800000;stroke-width:0.529167;stroke-dasharray:none"
       d="m 6.8024082,40.126676 c -6.35e-4,3.38e-4 -0.306854,0.09798 0.638459,-1.284814 1.551652,-2.269724 3.1123438,-2.976459 3.1123438,-2.976459 0,0 4.713366,-3.504097 14.076312,-2.606326 9.362947,0.897748 0.465147,4.393094 0.465147,4.393094 0,0 -5.065419,4.900929 -9.787333,5.635673 -4.721912,0.734745 -6.4492708,-0.748872 -6.4492708,-0.748872 0,0 -1.69282,-0.836882 -2.055658,-2.412296 z"
       id="path2-9-3-6"
       sodipodi:nodetypes="cscscscc"
       inkscape:transform-center-x="-1.9911994"
       inkscape:transform-center-y="2.7402071" /><path
       style="fill:#ff0000;stroke:#800000;stroke-width:0.529167;stroke-dasharray:none"
       d="m 27.192596,9.3322089 c -3.64e-4,-6.19e-4 -0.111041,-0.302374 1.311001,0.582797 2.334154,1.4529301 3.10714,2.9818921 3.10714,2.9818921 0,0 3.702923,4.558824 3.207335,13.951649 -0.495587,9.392822 -4.369117,0.653037 -4.369117,0.653037 0,0 -5.113561,-4.850677 -6.050043,-9.536755 -0.936481,-4.686076 0.471725,-6.475444 0.471725,-6.475444 0,0 0.763546,-1.7271391 2.321959,-2.1571761 z"
       id="path2-97"
       sodipodi:nodetypes="cscscscc" /><path
       style="fill:#ff0000;stroke:#800000;stroke-width:0.529167;stroke-dasharray:none"
       d="m 38.386998,8.2759959 c -2.4e-5,-7.18e-4 0.04696,-0.3186768 0.873103,1.138451 1.356035,2.3917451 1.304371,4.1042181 1.304371,4.1042181 0,0 1.074128,5.774146 -3.849912,13.788171 -4.924037,8.014024 -4.150005,-1.5143 -4.150005,-1.5143 0,0 -2.173789,-6.704642 -0.757001,-11.268525 1.416787,-4.5638831 3.508901,-5.4627391 3.508901,-5.4627391 0,0 1.496091,-1.1522688 3.070543,-0.785276 z"
       id="path2-2-6"
       sodipodi:nodetypes="cscscscc" /><path
       style="fill:#ff0000;stroke:#800000;stroke-width:0.529167;stroke-dasharray:none"
       d="m 58.466063,46.310151 c 7.11e-4,1.02e-4 0.305543,0.101999 -1.273666,0.660419 -2.592128,0.916596 -4.269139,0.566074 -4.269139,0.566074 0,0 -5.873014,0.04717 -12.901763,-6.203226 -7.028748,-6.250394 2.217122,-3.820996 2.217122,-3.820996 0,0 6.981576,-0.967044 11.227129,1.226492 4.245552,2.193536 4.764453,4.410657 4.764453,4.410657 0,0 0.872697,1.674637 0.235864,3.16058 z"
       id="path2-6"
       sodipodi:nodetypes="cscscscc" /><path
       style="fill:#ff0000;stroke:#800000;stroke-width:0.529167;stroke-dasharray:none"
       d="m 50.793889,55.148972 c 5.76e-4,4.29e-4 0.219652,0.235613 -1.434421,-0.02854 -2.71501,-0.433586 -4.020623,-1.542913 -4.020623,-1.542913 0,0 -5.181524,-2.765199 -8.368749,-11.614626 -3.187225,-8.849425 3.773571,-2.296913 3.773571,-2.296913 0,0 6.594904,2.486929 9.276028,6.442671 2.681123,3.955741 2.077405,6.151284 2.077405,6.151284 0,0 -0.03369,1.888088 -1.303211,2.889037 z"
       id="path2-2-61"
       sodipodi:nodetypes="cscscscc" /><path
       style="fill:#ff0000;stroke:#800000;stroke-width:0.529167;stroke-dasharray:none"
       d="m 8.9246414,52.366755 c -4.1e-4,5.91e-4 -0.228044,0.2275 -0.02005,-1.434565 0.341411,-2.728134 1.4058966,-4.070559 1.4058966,-4.070559 0,0 2.588176,-5.272178 11.324613,-8.757205 8.736436,-3.485026 2.423364,3.693636 2.423364,3.693636 0,0 -2.262209,6.675328 -6.124904,9.48885 -3.862694,2.813523 -6.077419,2.284488 -6.077419,2.284488 0,0 -1.8881466,0.03026 -2.9315056,-1.204645 z"
       id="path2-2-1-3"
       sodipodi:nodetypes="cscscscc"
       inkscape:transform-center-x="2.3037019"
       inkscape:transform-center-y="-2.7840975" /><path
       style="fill:#ff0000;stroke:#800000;stroke-width:0.529167;stroke-dasharray:none"
       d="m 18.677425,58.028341 c -1.49e-4,7.03e-4 -0.121705,0.298241 -0.575942,-1.314027 -0.74558,-2.646391 -0.286427,-4.29697 -0.286427,-4.29697 0,0 0.335982,-5.863586 7.031498,-12.469706 6.695498,-6.606135 3.668255,2.461615 3.668255,2.461615 0,0 0.509633,7.029783 -1.956138,11.123229 -2.465768,4.093446 -4.712012,4.466637 -4.712012,4.466637 0,0 -1.727991,0.761615 -3.169234,0.02922 z"
       id="path2-9-1"
       sodipodi:nodetypes="cscscscc"
       inkscape:transform-center-x="-2.4600702"
       inkscape:transform-center-y="-0.22259837" /><path
       style="fill:#ff0000;stroke:#800000;stroke-width:0.529167;stroke-dasharray:none"
       d="m 38.786272,58.781741 c 3.64e-4,6.19e-4 0.111041,0.302374 -1.311001,-0.582797 -2.334154,-1.45293 -3.10714,-2.981892 -3.10714,-2.981892 0,0 -3.702923,-4.558824 -3.207335,-13.951649 0.495587,-9.392822 4.369117,-0.653037 4.369117,-0.653037 0,0 5.113561,4.850677 6.050043,9.536755 0.936481,4.686076 -0.471725,6.475444 -0.471725,6.475444 0,0 -0.763546,1.727139 -2.321959,2.157176 z"
       id="path2-97-5"
       sodipodi:nodetypes="cscscscc" /><path
       style="fill:#ff0000;stroke:#800000;stroke-width:0.529167;stroke-dasharray:none"
       d="m 27.59187,59.837954 c 2.4e-5,7.18e-4 -0.04696,0.318677 -0.873103,-1.138451 -1.356035,-2.391745 -1.304371,-4.104218 -1.304371,-4.104218 0,0 -1.074128,-5.774146 3.849912,-13.788171 4.924037,-8.014024 4.150005,1.5143 4.150005,1.5143 0,0 2.173789,6.704642 0.757001,11.268525 -1.416787,4.563883 -3.508901,5.462739 -3.508901,5.462739 0,0 -1.496091,1.152269 -3.070543,0.785276 z"
       id="path2-2-6-8"
       sodipodi:nodetypes="cscscscc" /><ellipse
       style="fill:#ff6600;stroke:#800000;stroke-width:0.631685;stroke-dasharray:none"
       id="path3"
       cx="33.488155"
       cy="34.025124"
       rx="11.189785"
       ry="10.405914" /></g><metadata
     id="metadata1"><rdf:RDF><cc:Work
         rdf:about=""><dc:title>Project Daisy Icon</dc:title><cc:license
           rdf:resource="http://creativecommons.org/licenses/by-nc/4.0/" /><dc:date>2023-09-22</dc:date><dc:creator><cc:Agent><dc:title>TheWindowsPro98</dc:title></cc:Agent></dc:creator><dc:publisher><cc:Agent><dc:title>TheWindowsPro98</dc:title></cc:Agent></dc:publisher><dc:language>None</dc:language><dc:subject><rdf:Bag><rdf:li>flower</rdf:li><rdf:li>daisy</rdf:li></rdf:Bag></dc:subject><dc:description>The icon for Project Daisy, in vector form.</dc:description></cc:Work><cc:License
         rdf:about="http://creativecommons.org/licenses/by-nc/4.0/"><cc:permits
           rdf:resource="http://creativecommons.org/ns#Reproduction" /><cc:permits
           rdf:resource="http://creativecommons.org/ns#Distribution" /><cc:requires
           rdf:resource="http://creativecommons.org/ns#Notice" /><cc:requires
           rdf:resource="http://creativecommons.org/ns#Attribution" /><cc:prohibits
           rdf:resource="http://creativecommons.org/ns#CommercialUse" /><cc:permits
           rdf:resource="http://creativecommons.org/ns#DerivativeWorks" /></cc:License></rdf:RDF></metadata></svg>
